<?xml version="1.0" encoding="utf-8"?>
<!-- Svg Vector Icons : http://www.onlinewebfonts.com/icon -->
<!DOCTYPE svg PUBLIC "-//W3C//DTD SVG 1.1//EN" "http://www.w3.org/Graphics/SVG/1.1/DTD/svg11.dtd">
<svg version="1.1" xmlns="http://www.w3.org/2000/svg" xmlns:xlink="http://www.w3.org/1999/xlink" x="0px" y="0px" viewBox="0 0 1000 1000" enable-background="new 0 0 1000 1000" xml:space="preserve">
<metadata> Svg Vector Icons : http://www.onlinewebfonts.com/icon </metadata>
<g><g><g><path d="M328.2,468.6l-244-244c-7.4-7.4-17.3-11.5-27.8-11.5c-10.5,0-20.4,4.1-27.8,11.5c-7.5,7.5-11.5,17.3-11.5,27.8c0,10.5,4.1,20.4,11.5,27.8l216.1,216.2L21.5,719.7c-15.3,15.4-15.3,40.3,0,55.6c7.4,7.5,17.3,11.5,27.8,11.5s20.4-4.1,27.8-11.5l251.1-251.1C343.5,508.9,343.5,484,328.2,468.6z M306,502L54.9,753.1c-1.6,1.6-3.6,2.3-5.6,2.3c-2,0-4-0.8-5.6-2.3c-3.1-3-3.1-8.1,0-11.1l245.5-245.5L50.9,258c-3.1-3.1-3.1-8.1,0-11.1c3-3.1,8.1-3.1,11.1,0l244,244C309,493.9,309,499,306,502z"/><path d="M653.3,468.6l-244-244c-7.5-7.4-17.3-11.5-27.8-11.5c-10.5,0-20.4,4.1-27.8,11.5c-7.5,7.5-11.5,17.3-11.5,27.8c0,10.5,4.1,20.4,11.5,27.8l216.1,216.2L346.6,719.7c-15.4,15.4-15.4,40.3,0,55.6c7.4,7.5,17.3,11.5,27.8,11.5c10.5,0,20.4-4.1,27.8-11.5l251.1-251.1C668.7,508.9,668.7,484,653.3,468.6z M631.1,502L380,753.1c-1.6,1.6-3.6,2.3-5.6,2.3c-2,0-4-0.8-5.6-2.3c-3.1-3-3.1-8.1,0-11.1l245.5-245.5L376,258c-3.1-3.1-3.1-8.1,0-11.1c3-3.1,8-3.1,11.1,0l244,244C634.1,493.9,634.1,499,631.1,502z"/><path d="M734.5,224.6c-7.4-7.4-17.3-11.5-27.8-11.5c-10.5,0-20.4,4.1-27.8,11.5c-7.4,7.5-11.5,17.3-11.5,27.8c0,10.5,4.1,20.4,11.5,27.8L895,496.5L671.7,719.7c-15.4,15.4-15.4,40.3,0,55.6c7.4,7.5,17.3,11.5,27.8,11.5c10.5,0,20.4-4.1,27.8-11.5l251.1-251.1c15.4-15.4,15.4-40.3,0-55.6L734.5,224.6z M956.2,502L705.1,753.1c-1.6,1.6-3.6,2.3-5.6,2.3c-2,0-4-0.8-5.6-2.3c-3.1-3-3.1-8.1,0-11.1l245.5-245.5L701.1,258c-3.1-3.1-3.1-8.1,0-11.1c3.1-3.1,8.1-3.1,11.1,0l244,244C959.3,493.9,959.3,499,956.2,502z"/></g></g><g></g><g></g><g></g><g></g><g></g><g></g><g></g><g></g><g></g><g></g><g></g><g></g><g></g><g></g><g></g></g>
</svg>