<?xml version="1.0" encoding="utf-8"?>
<!-- Generator: Adobe Illustrator 26.0.1, SVG Export Plug-In . SVG Version: 6.00 Build 0)  -->
<svg version="1.1" id="Layer_1" xmlns="http://www.w3.org/2000/svg" xmlns:xlink="http://www.w3.org/1999/xlink" x="0px" y="0px"
	 viewBox="0 0 3000 864" style="enable-background:new 0 0 3000 864;" xml:space="preserve">
<style type="text/css">
	.st0{enable-background:new    ;}
</style>
<g>
	<g>
		<g>
			<g>
				<path d="M433.3,686.3C361,697.5,288.9,710,217,723.5c0-176.6,0-353.1,0-529.7c32-0.1,47.9-0.1,79.9-0.2
					c-0.2,146-0.4,292-0.5,438.1c45.6-6.9,91.4-13.4,137.1-19.4C433.4,641.9,433.3,656.7,433.3,686.3z"/>
				<path d="M561.7,667.5c-31.9,4.4-47.8,6.6-79.6,11.4c0.6-161.9,1.1-323.7,1.7-485.6c32-0.1,47.9-0.1,79.9-0.1
					C562.9,351.2,562.3,509.4,561.7,667.5z"/>
				<path d="M706.8,649.2c-31.9,3.7-47.9,5.6-79.8,9.7c0.7-155.4,1.4-310.8,2.1-466.2c75.8-0.1,151.6-0.2,227.4-0.3
					c-0.1,26.8-0.2,40.1-0.3,66.9c-49.2,0.8-98.4,1.6-147.5,2.5c-0.2,49.8-0.4,74.7-0.6,124.5c43.1-2.1,64.7-3.1,107.8-5
					c-0.1,27-0.2,40.5-0.3,67.5c-43.1,2.5-64.7,3.8-107.8,6.7C707.4,520,707.1,584.6,706.8,649.2z"/>
				<path d="M903.5,629.4c0.7-145.7,1.4-291.4,2-437.1c75.8-0.1,151.6-0.1,227.4-0.2c-0.1,25.5-0.1,38.3-0.2,63.8
					c-49.2,0.5-98.4,1-147.6,1.5c-0.2,47-0.3,70.5-0.5,117.5c43.2-1.4,64.7-2,107.9-3.1c-0.1,25.7-0.1,38.5-0.2,64.2
					c-43.2,1.5-64.8,2.3-108,4.2c-0.2,47-0.3,70.5-0.5,117.5c49.3-3,98.6-5.7,147.9-8.1c-0.1,25.5-0.1,38.3-0.2,63.8
					C1055.4,617.4,979.4,622.9,903.5,629.4z"/>
				<path d="M1359.5,430.2c-0.1,58.3-0.2,116.6-0.3,174.9c-32.1,0.7-48.1,1.1-80.2,2.1c0.3-138.3,0.6-276.5,0.9-414.8
					c32,0,47.9,0,79.9,0c-0.1,58.4-0.2,116.8-0.3,175.2c38.6-0.3,57.9-0.5,96.6-0.6c0-58.2,0.1-116.5,0.1-174.7c32,0,47.9,0,79.9,0
					c0.1,137.1,0.1,274.3,0.2,411.4c-32.1-0.2-48.1-0.2-80.2,0c0-58.1,0.1-116.2,0.1-174.4C1417.4,429.5,1398.1,429.7,1359.5,430.2z
					"/>
				<path d="M1854.2,287.7c-0.1-27.7-12.5-51.5-37.2-71.2s-54.7-29.4-89.9-29.4c-34.6,0-64.4,9.6-89.2,28.9
					c-24.7,19.1-37.1,42.4-37.1,69.8c0,74.9,0.1,149.9,0.2,224.9c0,27.2,12.4,50.5,37,70.3s54.6,30.2,90,31.4
					c35.1,1.2,65.1-7.2,89.9-25.6c24.8-18.4,37.2-41.6,37.1-69.6C1854.7,440.7,1854.5,364.2,1854.2,287.7z M1758.2,538.8
					c-8.9,6.7-19.7,9.9-32.4,9.5c-12.7-0.4-23.6-4.2-32.7-11.3c-9-7.2-13.6-15.7-13.6-25.6c-0.1-75.5-0.3-151-0.4-226.5
					c0-9.9,4.5-18.3,13.5-25.2c9-6.9,19.8-10.4,32.5-10.3c12.7,0,23.5,3.6,32.4,10.6c8.9,7,13.4,15.5,13.4,25.5
					c0.2,76,0.4,152,0.6,228.3C1771.5,523.8,1767.1,532.1,1758.2,538.8z"/>
				<path d="M2046.1,630c-35.3-2.8-65.3-14.9-90-36.2s-37-45.6-37.2-73.6c-0.4-109.3-0.8-218.5-1.3-327.8c31.3,0,46.9,0,78.2,0.1
					c0.5,110.4,0.9,220.7,1.4,331.1c0,10.3,4.6,19.3,13.7,27c9.1,7.8,20,12.1,32.7,13s23.5-2,32.3-8.7c8.9-6.7,13.3-15.2,13.2-25.7
					c-0.5-112.2-1-224.4-1.6-336.6c33.3,0,50,0.1,83.3,0.1c0.5,114.4,1.1,228.8,1.6,343.1c0.1,29.7-12.1,53.8-36.9,71.7
					C2111,625.6,2081.1,632.8,2046.1,630z"/>
				<path d="M2496.4,555.6c0.7,33.6-8.8,61.3-28.3,82.4c-12.9,14.3-31.1,23.1-54.7,26.5c-12.6,1.8-27.4,1.6-44.3-0.5
					c-31.2-4-57.2-14-77.8-29.5c-17.1-12.9-30.9-29-41-48.6s-16-41.3-17.8-65.4c30.4,0.5,45.6,0.8,76,1.5
					c3.5,27,11.9,47.1,24.8,60.5c9.6,10,20.7,15.6,33,16.5c17.3,1.3,31.3-4.6,41.7-18.2c5.3-6.7,7.9-16.8,7.9-30.4
					c-0.1-19.6-10.2-41.3-30.2-60.9c-14.9-14.5-39.9-36-71.2-63.9c-26.6-23.6-45.7-44.5-56.5-62.2c-12-19.7-17.9-41.3-18.1-64.1
					c-0.2-41,15.9-71.8,48.2-93c19.9-12.8,44.7-19.3,74.3-19.3c28.5,0,52.9,5.6,73.2,17c15.8,8.9,28.6,21.5,38.4,37.7
					c9.8,16.2,15.7,35,17.7,56.1c-30.6,4.1-45.8,6.1-76.4,10c-2.3-19.4-8.6-34.6-18.8-45.5c-7.4-7.9-17.9-11.9-31.7-12.1
					c-14.7-0.2-25.7,5.3-33.3,16.4c-6.1,8.9-9.2,20.1-9.1,33.6c0.1,21,10.6,42.7,31.6,65.7c7.9,8.8,19.9,19.2,35.6,31.6
					c18.6,14.7,30.9,25.3,36.9,31.2c19.8,19,35,37.7,45.8,55.9c5.1,8.6,9.2,16.5,12.3,23.7C2492.1,526.1,2496.1,542,2496.4,555.6z"
					/>
				<path d="M2557,684.8c-0.5-163.9-1-327.9-1.5-491.8c75.8,0.1,221.5,0.5,221.5,0.5l26.2,80.3c0,0-167.7-4.1-167.7-4.2
					c0.1,45.9,0.2,91.7,0.3,137.6c43,3.1,64.5,4.7,107.5,8c0,31.7,0,47.5,0.1,79.2c-42.9-4.5-64.4-6.7-107.4-10.8
					c0.1,45.9,0.2,91.7,0.3,137.6c48.9,7.1,155.6,22.1,155.6,22.1l-26.5,80.3C2765.4,723.5,2632.5,696.5,2557,684.8z"/>
			</g>
		</g>
		<g>
			<path d="M1335.3,21.4v108.1h-28.8V21.4h-31.8V0.1h92.4v21.2L1335.3,21.4L1335.3,21.4z"/>
			<path d="M1451.2,0.1h28.6v50h40.7v-50h28.8v129.3h-28.8V72.9h-40.7v56.6h-28.6V0.1z"/>
			<path d="M1642.8,129.4V0.1h78.3v20.7h-49.8V52h44.8v21.9h-44.8v34.7h54v20.9h-82.5V129.4z"/>
		</g>
	</g>
	<path d="M2866.6,37.6H1781.9V92h1044.9l116,366.3l-113.7,339.4c-160.5-40.8-441.7-73.4-766.7-91.4v24.6
		c338.4,18.7,628.4,53.3,782.6,96.4l123.6-368.7l-123.8-391H1827.2v-5.4h1021.6l125.5,396.5l-0.3,0.8L2848.5,834l-2.5-0.7
		c-153.2-43.4-444-78.2-783.6-97v24.4c337.2,18.7,625.4,53.1,776.9,96l25,7.1l135.7-405L2866.6,37.6z M0,458.8l135.7,405l25-7.1
		c151.5-42.9,439.8-77.3,776.9-96v-24.4C598,755.1,307.2,789.8,154,833.2l-2.5,0.7L25.7,458.6l0.2-0.9L151.3,62.1h1021.6v5.4H155.3
		l-123.8,391L155,827.3c154.2-43.1,444.2-77.6,782.6-96.4v-24.6c-325.1,18-606.2,50.6-766.7,91.4L57.2,458.3L173.2,92h1045V37.6
		H133.3L0,458.8z"/>
</g>
<g class="st0">
	<path d="M1052.5,745c0,17.6-13,32.6-37,32.6s-37-15-37-32.6v-56.5c0-17.4,13-32.6,37-32.6s37,15.2,37,32.6v5.1h-21.7v-5.1
		c0-7.8-6-14.4-15.3-14.4c-9.2,0-15.3,6.6-15.3,14.4V745c0,7.8,6,14.4,15.3,14.4c9.2,0,15.3-6.6,15.3-14.4v-5h21.7V745z"/>
	<path d="M1141.6,745c0,17.6-13.4,32.6-37.9,32.6s-37.9-15-37.9-32.6v-56.5c0-17.4,13.4-32.6,37.9-32.6s37.9,15.2,37.9,32.6V745z
		 M1087.4,745c0,7.6,5.7,14.4,16.2,14.4c10.4,0,16.2-6.8,16.2-14.4v-56.5c0-7.6-5.9-14.4-16.2-14.4c-10.6,0-16.2,6.8-16.2,14.4V745z
		"/>
	<path d="M1209.8,776l-17.2-61.9c-3.2-10.3-5.1-21-7.6-31.4h-0.4c0.6,15.6,1.9,31.1,1.9,46.7V776h-21.7V657.6h32.8l17.2,61.9
		c3.2,10.3,5.1,21,7.6,31.4h0.4c-0.6-15.6-1.9-31.1-1.9-46.7v-46.7h21.7V776H1209.8z"/>
	<path d="M1284.7,745c0,8.6,5.7,14.4,15.7,14.4c10.2,0,15.7-5.6,15.7-15.2c0-12-7.6-14.9-21.5-19.3c-14-4.2-31.1-11-31.1-34.7
		c0-20.5,13-34.3,36.6-34.3c24.7,0,37.6,15.4,37.6,32.6v5.1h-21.9v-5.1c0-8.6-5.7-14.4-15.5-14.4s-15.1,5.7-15.1,15
		c0,13,10.6,16.2,19.4,18.9c17.2,5.2,33.2,11.5,33.2,34.5c0,21-13,35-36.8,35c-24.9,0-37.9-15.2-37.9-32.6V740h21.7L1284.7,745
		L1284.7,745z"/>
	<path d="M1374.4,776V675.9h-24.9v-18.3h71.5v18.3h-24.9V776H1374.4z"/>
	<path d="M1488.2,776l-18.9-40.4h-10.4V776h-21.7V657.6h34.5c24,0,37,14.9,37,32.1v13.7c0,11.8-6,22.7-17.9,28.2L1511,776H1488.2z
		 M1487.1,689.8c0-7.3-3.4-13.9-15.3-13.9H1459v41.4h12.8c11.9,0,15.3-6.6,15.3-13.9V689.8z"/>
	<path d="M1605.6,745c0,17.6-13.4,32.6-37.9,32.6s-37.9-15-37.9-32.6v-87.4h21.7V745c0,7.6,5.7,14.4,16.2,14.4
		c10.4,0,16.2-6.8,16.2-14.4v-87.4h21.7L1605.6,745L1605.6,745z"/>
	<path d="M1701.3,745c0,17.6-13,32.6-37,32.6s-37-15-37-32.6v-56.5c0-17.4,13-32.6,37-32.6s37,15.2,37,32.6v5.1h-21.7v-5.1
		c0-7.8-6-14.4-15.3-14.4c-9.2,0-15.3,6.6-15.3,14.4V745c0,7.8,6,14.4,15.3,14.4c9.2,0,15.3-6.6,15.3-14.4v-5h21.7V745z"/>
	<path d="M1734.9,776V675.9H1710v-18.3h71.5v18.3h-24.9V776H1734.9z"/>
	<path d="M1797.8,776V657.6h21.7V776H1797.8z"/>
	<path d="M1918.8,745c0,17.6-13.4,32.6-37.9,32.6s-37.9-15-37.9-32.6v-56.5c0-17.4,13.4-32.6,37.9-32.6s37.9,15.2,37.9,32.6V745z
		 M1864.6,745c0,7.6,5.7,14.4,16.2,14.4c10.4,0,16.2-6.8,16.2-14.4v-56.5c0-7.6-5.9-14.4-16.2-14.4c-10.6,0-16.2,6.8-16.2,14.4V745z
		"/>
	<path d="M1986.9,776l-17.2-61.9c-3.2-10.3-5.1-21-7.6-31.4h-0.4c0.6,15.6,1.9,31.1,1.9,46.7V776H1942V657.6h32.8l17.2,61.9
		c3.2,10.3,5.1,21,7.6,31.4h0.4c-0.6-15.6-1.9-31.1-1.9-46.7v-46.7h21.7V776H1986.9z"/>
</g>
</svg>
