<?xml version="1.0" standalone="no"?>
<!DOCTYPE svg PUBLIC "-//W3C//DTD SVG 20010904//EN"
 "http://www.w3.org/TR/2001/REC-SVG-20010904/DTD/svg10.dtd">
<svg version="1.0" xmlns="http://www.w3.org/2000/svg"
 width="661.000000pt" height="154.000000pt" viewBox="0 0 661.000000 154.000000"
 preserveAspectRatio="xMidYMid meet">

<g transform="translate(0.000000,154.000000) scale(0.100000,-0.100000)"
fill="#000000" stroke="none">
<path d="M3430 1359 c-71 -12 -176 -61 -218 -102 -72 -69 -101 -180 -64 -247
23 -42 69 -75 118 -84 20 -4 37 -6 39 -4 2 2 6 20 10 41 6 33 5 37 -13 37 -27
0 -62 45 -62 80 0 91 68 149 200 171 144 23 298 -49 360 -170 53 -105 49 -284
-10 -404 -62 -127 -140 -179 -271 -178 -34 0 -63 2 -65 3 -2 2 3 25 11 51 19
64 100 615 92 623 -11 11 -92 7 -131 -6 -39 -12 -35 0 -61 -205 -25 -196 -19
-180 -80 -214 -29 -17 -70 -44 -89 -61 -19 -18 -39 -29 -44 -26 -5 3 -19 -21
-31 -54 -33 -89 -63 -120 -116 -120 -36 0 -54 8 -104 46 -53 39 -61 50 -61 77
1 41 35 296 41 300 177 111 229 179 229 297 0 119 -133 187 -255 131 -83 -38
-107 -87 -130 -262 -8 -68 -17 -129 -19 -135 -3 -6 -45 -21 -95 -34 l-91 -22
0 -44 c0 -24 1 -44 3 -44 1 0 36 9 77 20 93 24 103 25 96 3 -2 -10 -7 -48 -11
-84 l-6 -66 -51 -1 c-161 -3 -217 -218 -72 -278 65 -27 141 -11 204 43 l40 35
53 -34 c28 -19 67 -40 85 -48 45 -18 109 -5 153 30 36 29 37 29 54 10 45 -50
145 -61 216 -24 26 13 32 13 62 -3 25 -14 56 -18 147 -18 111 0 118 1 185 34
216 106 322 374 248 625 -40 135 -119 220 -258 278 -88 37 -222 53 -315 37z
m-416 -125 c13 -34 5 -92 -16 -124 -27 -39 -95 -96 -104 -87 -12 11 24 188 42
208 21 23 69 25 78 3z m312 -576 c-3 -13 -8 -41 -11 -63 -13 -81 -62 -127
-100 -95 -38 32 -8 104 65 155 44 30 52 31 46 3z m-668 -87 c11 -7 11 -15 -2
-45 -14 -33 -19 -37 -47 -34 -44 4 -58 28 -36 62 18 27 58 35 85 17z"/>
<path d="M463 1345 c-154 -42 -245 -137 -247 -260 0 -43 5 -59 28 -90 16 -20
42 -45 58 -55 29 -17 96 -35 104 -28 2 2 6 22 10 45 6 40 5 41 -30 53 -67 22
-85 85 -43 147 68 102 311 126 426 42 55 -39 74 -80 69 -141 -7 -73 -59 -120
-147 -134 -37 -6 -41 -10 -41 -34 0 -16 -2 -35 -6 -43 -4 -11 8 -15 51 -20 68
-7 132 -41 162 -86 33 -49 32 -133 -2 -183 -43 -63 -110 -78 -259 -56 -15 2
-24 -8 -37 -44 l-18 -46 32 -12 c18 -6 70 -14 117 -17 135 -9 237 25 318 107
30 30 62 109 62 154 0 103 -88 195 -215 227 l-49 12 45 13 c88 26 159 115 159
200 0 82 -61 168 -151 215 -93 47 -286 63 -396 34z"/>
<path d="M1155 1337 c-57 -31 -88 -95 -80 -161 8 -64 27 -101 81 -156 l44 -45
-22 -180 c-24 -204 -21 -251 21 -317 70 -111 260 -131 379 -40 l45 34 24 -31
c31 -39 72 -61 114 -61 43 0 112 34 143 70 l24 29 27 -30 c88 -99 269 -88 356
22 51 65 67 125 109 422 44 308 51 329 108 335 36 4 41 24 21 81 -13 35 -18
37 -60 15 -49 -25 -141 -21 -248 11 -148 43 -226 30 -285 -49 -26 -35 -27
-110 -2 -148 43 -66 135 -91 244 -65 52 12 62 12 62 1 0 -59 -54 -468 -66
-501 -21 -56 -55 -83 -109 -83 -50 0 -83 29 -91 82 -12 73 48 128 140 128 46
0 46 0 46 35 l0 35 -65 0 c-41 0 -78 -6 -97 -16 -17 -9 -39 -14 -49 -11 -12 3
-19 0 -19 -9 0 -7 -9 -33 -19 -56 -11 -24 -25 -58 -32 -76 -31 -86 -118 -123
-156 -66 -16 25 -14 43 31 414 26 214 45 394 41 399 -13 22 -175 5 -175 -18 0
-34 -83 -705 -91 -734 -22 -81 -99 -126 -168 -98 -62 26 -64 65 -15 433 43
331 39 369 -48 414 -41 21 -117 17 -163 -9z m64 -104 c10 -18 3 -123 -9 -136
-4 -5 -19 6 -34 23 -28 34 -36 96 -14 118 17 17 45 15 57 -5z m976 -42 l70
-18 -45 -21 c-59 -28 -123 -29 -150 -2 -11 11 -20 27 -20 35 0 19 30 35 55 29
11 -3 52 -13 90 -23z"/>
<path d="M4205 1346 c-16 -7 -41 -26 -55 -41 -21 -22 -25 -36 -25 -88 0 -46 5
-69 20 -89 43 -58 141 -80 240 -54 32 8 60 14 60 13 4 -5 -47 -426 -57 -477
-14 -73 -59 -120 -115 -120 -49 0 -80 22 -92 65 -22 82 36 145 134 145 45 0
45 0 45 35 l0 35 -62 0 c-84 0 -141 -28 -180 -89 -26 -41 -29 -53 -26 -113 3
-57 8 -73 34 -105 43 -53 84 -74 154 -80 130 -12 234 66 274 208 8 30 32 171
51 314 40 289 50 318 104 323 33 3 33 4 28 49 -6 60 -15 67 -62 47 -57 -23
-147 -20 -250 10 -98 28 -173 33 -220 12z m168 -153 c37 -10 67 -20 67 -24 0
-4 -18 -14 -40 -23 -79 -32 -160 -12 -160 39 0 39 10 40 133 8z"/>
<path d="M4894 1329 c-88 -45 -95 -55 -82 -110 l11 -46 35 23 c47 32 107 35
150 8 33 -21 27 -34 -17 -34 -21 0 -43 -6 -48 -12 -5 -7 -20 -92 -32 -188 -29
-235 -26 -223 -69 -245 -87 -46 -152 -131 -152 -197 0 -46 29 -99 70 -126 28
-19 45 -23 81 -20 79 8 127 62 148 168 11 58 71 479 71 501 0 50 27 -50 91
-333 l73 -328 106 0 105 0 45 305 c38 261 47 306 63 311 9 3 44 30 77 60 43
41 64 70 79 109 24 65 20 100 -18 146 -23 27 -35 33 -82 36 -40 3 -63 -1 -89
-15 -63 -35 -76 -77 -124 -397 -24 -160 -46 -283 -49 -275 -4 8 -35 137 -71
287 -75 315 -84 338 -156 382 -55 33 -142 29 -216 -10z m726 -94 c7 -9 10 -25
6 -41 -7 -28 -73 -101 -82 -91 -10 9 17 116 32 132 19 19 28 19 44 0z m-755
-632 c-12 -70 -26 -102 -47 -109 -22 -7 -48 16 -48 44 0 22 21 55 49 79 40 34
53 30 46 -14z"/>
<path d="M6005 1346 c-125 -40 -228 -134 -294 -266 -50 -102 -71 -194 -71
-316 0 -139 35 -232 113 -301 36 -31 131 -73 167 -73 27 0 25 -5 -14 -51 -80
-94 -68 -232 24 -279 89 -45 168 -33 236 36 51 51 77 124 94 270 7 54 13 99
13 100 1 1 30 16 64 34 66 34 173 131 173 156 0 8 -8 26 -17 38 l-18 23 -37
-42 c-40 -46 -135 -112 -145 -101 -3 3 -1 43 5 88 18 128 25 118 -73 118 -61
0 -85 -3 -85 -12 0 -7 -7 -69 -15 -138 -8 -69 -15 -128 -15 -132 0 -12 -89 -9
-134 4 -59 18 -112 75 -132 144 -25 85 -16 255 18 352 51 144 131 231 232 252
65 13 120 -2 150 -43 25 -34 29 -129 6 -171 -42 -79 -150 -65 -150 20 0 28 -4
34 -20 34 -64 0 -108 -61 -85 -117 45 -106 233 -116 327 -16 40 42 59 97 59
169 0 76 -19 121 -71 168 -66 60 -206 84 -305 52z m81 -1036 c-12 -128 -48
-181 -101 -146 -49 32 -20 129 57 185 23 17 44 31 46 31 3 0 2 -31 -2 -70z"/>
<path d="M585 1185 c-5 -2 -26 -6 -45 -9 -19 -4 -41 -10 -47 -14 -8 -5 -21
-70 -33 -163 -11 -85 -22 -168 -25 -185 -5 -26 -17 -38 -72 -70 -114 -67 -173
-157 -159 -242 8 -51 33 -82 84 -104 41 -19 53 -20 100 -10 96 20 148 80 176
202 18 80 91 579 85 584 -7 6 -54 14 -64 11z m-169 -527 c-3 -13 -8 -41 -11
-63 -13 -81 -62 -127 -100 -95 -38 32 -8 104 65 155 44 30 52 31 46 3z"/>
</g>
</svg>
